<?xml version="1.0" standalone="no"?><!DOCTYPE svg PUBLIC "-//W3C//DTD SVG 1.1//EN" "http://www.w3.org/Graphics/SVG/1.1/DTD/svg11.dtd"><svg class="icon" height="512" viewBox="0 0 1024 1024" version="1.1" xmlns="http://www.w3.org/2000/svg"><path d="M565.248 337.408c-29.184-32.256-70.656-50.688-113.664-50.688H365.056c-43.52 0-84.992 18.432-113.664 50.688l-139.264 153.6c-7.168 7.68-6.656 19.456 0.512 26.624l52.224 57.344c4.096 3.584 8.704 6.144 14.336 5.632 5.632 0 10.24-2.56 13.824-1.536l94.72-103.936V952.32c0 5.632 8.704 14.336 19.456 14.336h67.072c10.752 0 19.456-8.704 19.456-19.456v-287.744h28.16V947.2c0 10.752 8.704 19.456 19.456 19.456h67.072c10.752 0 24.576-8.704 24.576-19.456V475.648l84.48 93.696c3.584 4.096 8.704 6.656 14.336 6.656 5.12 0.512 10.752-2.048 14.336-5.632l57.344-52.224c7.168-7.168 7.68-18.944 0.512-26.624l-138.752-154.112z m68.608 189.952l-115.2-132.096c-5.12-5.632-13.312-7.68-20.48-5.12s-12.288 9.728-12.288 17.408v518.656h-27.136V640c0-10.24-8.192-18.432-18.432-18.432H376.32c-10.24 0-18.432 8.192-18.432 18.432v286.72h-27.136V407.552c0-7.68-4.608-14.848-12.288-17.408-7.168-2.56-15.36-0.512-20.48 5.12L182.272 527.36 163.84 508.416 285.184 373.76c20.992-23.04 50.688-36.352 81.408-36.352h82.944c31.232 0 60.928 13.312 81.408 36.352l121.344 134.656-18.432 18.944z m237.056-462.336h-96.256c-10.24 0-18.432 13.312-18.432 23.552 0 10.24 8.192 23.552 18.432 23.552h67.072v166.4h-45.568c-10.24 0-18.432 13.312-18.432 23.552 0 10.24 8.192 23.552 18.432 23.552h45.568v166.4h-45.568c-10.24 0-18.432 13.312-18.432 23.552s8.192 23.552 18.432 23.552h45.568v166.4h-45.568c-10.24 0-18.432 13.312-18.432 23.552 0 10.24 8.192 23.552 18.432 23.552h45.568v168.96h-67.072c-10.24 0-18.432 13.312-18.432 23.552s8.192 23.552 18.432 23.552H870.4c10.24 0 19.968-6.656 19.968-16.896V81.92c0.512-10.24-9.216-16.896-19.456-16.896zM408.064 276.992c62.464 0 113.152-50.688 113.152-112.64 0-62.464-50.688-112.64-113.152-112.64s-112.64 50.688-112.64 112.64 50.688 112.64 112.64 112.64z m0-179.712c36.864 0 67.072 30.208 67.072 67.072 0 36.864-30.208 67.072-67.072 67.072S340.992 201.216 340.992 163.84c0-36.864 30.208-66.56 67.072-66.56z" fill="" /></svg>